<svg version="1" xmlns="http://www.w3.org/2000/svg" width="346.667" height="346.667" viewBox="0 0 260.000000 260.000000"><path d="M140 10.5c-1.4 1.7-6.7 4.5-8.7 4.5-.7 0-1.3.9-1.3 1.9 0 2-1.8 3.1-5.1 3.1-2.6 0-6.9 2.9-6.9 4.5 0 .8-.9 1.7-2 2-1.1.3-2 1.1-2 1.6s-.9 2-2 3.2c-1.1 1.2-1.8 2.7-1.5 3.5.3.7 0 1-.6.7-.6-.4-.8-1.3-.5-2.1.4-1-.2-1.4-1.9-1.4-1.6 0-2.5.6-2.5 1.5 0 1.8-2.6 2-3.6.3-.4-.6 0-1.6.9-2.3 2.2-1.6 1.1-2.5-2.9-2.5-2.4 0-3.1-.4-3-1.8.1-1.2-.5-1.6-1.9-1.4-1.1.2-2.1.8-2.3 1.3-.2.5-1.2.9-2.2.9-1 0-2 .7-2.4 1.5-.3.8-1.2 1.2-2 .9-.8-.3-2.4 0-3.6.6-1.6.9-2.5.9-3.6-.1-1.1-.9-1.4-.9-1.4 0 0 .7-.4 1-.9.7-.5-.3-1.1.3-1.4 1.4-.4 1.4 0 2 1.2 2 1 0 1.8.7 1.8 1.5s-.4 1.2-.9.9c-.4-.3-.8.2-.8 1.2 0 1.2-.6 1.5-2.6 1.1-1.5-.2-3.1.2-4 1-1.2 1.2-1.8 1.2-2.9.3-1.1-.9-1.5-1-1.5-.1 0 .7-.4 1-.9.7-.5-.3-1.2.1-1.5 1-.9 2.4-.8 2.7 1.4 2.1 1-.3 1.9-.2 1.8.2-.3 2.4.5 2.9 3.7 2.6 4-.3 5.2.7 3 2.5-.8.7-1.5 1.9-1.5 2.6 0 .7-1.1 2.1-2.5 3-1.7 1.1-2.5 2.4-2.3 3.8.2 1.7-.3 2.2-2.9 2.4-1.8.2-3.3.7-3.3 1.2s-.3 1.7-.6 2.7c-.4 1.3-.3 1.5.4.4 1.2-1.7 2.4 0 1.2 1.8-.4.8-1.5 1.1-2.4.8-1.7-.7-2.2.8-.6 1.8.5.3.6 1.3.3 2.1-.5 1.4-.3 1.4 1.6.3C61 72.1 62 71 62 70.4c0-.7.8-1.4 1.9-1.7 1.5-.4 1.8.1 1.5 3-.2 2.8 0 3.2 1.1 2.3 2.7-2.3 4.3-.4 4.8 5.5.1 1.1.5 2.5.9 3.1.4.7.1 1.7-.7 2.4-.8.7-1.5.9-1.5.6 0-.4-.7 0-1.6.8-1.9 2-3.8 2.1-3.1.2.3-.8.1-1.7-.6-2-.9-.3-.9-.5.1-.5 1.7-.1 1.5-2.1-.3-2.1-.8 0-1.5.7-1.5 1.5 0 1.8-1.7 2-2.2.3-.3-.7-1.1-.9-2.4-.3-1 .4-2.2.7-2.6.7-.5-.1-.8.3-.8.9 0 .6-.9.9-2 .6-1.1-.3-2.3-.1-2.6.5-.3.5-1.2.7-1.9.4-.8-.3-1.9.2-2.7 1.1-1 1.2-1 1.7-.1 2 .7.2 1 1 .7 1.8-.3.8-1.2 1.1-1.9.9-.7-.3-1.6-.1-2 .5-.3.6-1.7.8-3.1.5-3.1-.8-3.2 1.2-.2 3.7 1.4 1.3 2.5 1.6 3.3.9.6-.5 1.4-.7 1.7-.4.8.7-2.1 6.4-3.3 6.4-.5 0-.9.9-.9 2 0 1.5-.7 2-2.5 2-2.1 0-2.5.4-2.1 2.4.3 1.6-.1 2.6-1 2.8-.8.2-1 .8-.5 1.6.6 1.1 1.1 1 2.5-.4 1.6-1.6 1.7-1.5 2.3.4.3 1.2 1.1 1.8 1.8 1.5.9-.3 1.7.9 2.5 3.6 1.1 4 3 5.6 3 2.5 0-1.6 2.3-4.4 3.6-4.4.5 0 .3.5-.4 1.2-2.1 2.1-1.3 3.2 1 1.2 2.2-1.9 2.2-1.9.8 0-1.4 1.8-1.3 1.9.2 1.3 1.5-.5 1.6-.4.6 1.3-.9 1.3-1.6 1.6-2.4.9-.8-.7-1.4-.6-1.9.1-.4.6-2 .9-3.6.6-1.6-.2-2.9 0-2.9.6 0 .5-.9.6-2.1.3-1.6-.5-2-.3-1.7.6.3.8 1.6 1.3 3.2 1.1 2-.2 2.6.2 2.6 1.6 0 1.5.5 1.8 2.4 1.5 1.9-.4 2.4-.1 2.3 1.4-.1 1 .4 1.7 1.1 1.6.6-.2 1.2.1 1.2.7s.9.6 2.6-.1c1.5-.5 2.9-.7 3.2-.4.3.3.1.5-.5.5s-1 .8-.9 1.7c0 1-.7 1.9-1.8 2.1-1.1.2-1.6 0-1.2-.7.4-.6 0-1.1-1.1-1.1s-2.5-.6-3.2-1.3c-1-1-1.1-.8-.5.7.5 1.3.4 1.7-.3 1.3-.6-.4-1.3-.2-1.5.5-.5 1.5-3.7.3-4.5-1.8-.3-.9-.1-1.9.4-2.3.5-.3 1-1.3 1-2.2 0-1.1-.7-1.4-2.4-1.1-2.4.4-3.3 3.2-1 3.2.8 0 .7.4-.3 1-1.1.7-1.1 1-.2 1 .7 0 1 .4.7 1-.3.5.1 1 1 1s1.3.5 1 1.1c-.5.7-1.4.4-2.8-.8-1.1-1-1.7-1.3-1.4-.7.6 1-.5 1.9-3.3 2.9-.3.1-1.3.5-2.2.9-.9.4-2.1.5-2.7.2-.5-.4-1.3-.2-1.6.4-.4.7-1.1.8-1.8.1-.8-.6-2-.3-3.7 1.1-2.4 2-2.4 2-.2 1.4 1.8-.6 2.2-.3 2.2 1.2 0 2.1 1.4 2.3 3.9.8 1.1-.7 1.3-.4.7 1.8-.6 2.3-.3 2.6 1.9 2.6 1.4 0 2.5-.5 2.5-1.2 0-.6.3-.8.6-.5.4.4.1 1.4-.6 2.2-1.2 1.4-1.1 1.5 1.4.4 1.5-.7 2.5-1.8 2.2-2.6-.3-.7-.2-1.2.2-1.2 2.4.4 4.2-.3 4.2-1.6 0-1.8 1.6-2 2.6-.3.4.7.3.8-.4.4s-1.2-.2-1.2.3c0 .6 1.1 1.1 2.5 1.1s2.5-.4 2.5-.9.9-1.1 2.1-1.4c1.2-.3 1.8-.3 1.5.1-1.2 1.1 4.8 3 6.2 1.9.9-.7 1.2-.4 1.2 1.2 0 2.2 1.9 3 2.1.8 0-.6.4-.3.8.8.5 1.1.5 2.7 0 3.5-.4.8-1 2.3-1.3 3.2-.4 1.4-1 1.6-2.9.9-1.3-.5-3-.5-3.8-.1-.8.6-1.6.4-2.1-.3-.6-.9-.8-.9-.8 0 0 .7-.7 1.3-1.5 1.3s-1.5.4-1.5.9-.3 1.6-.6 2.5c-.4 1.1-.1 1.6 1 1.6.9 0 1.6.4 1.6.9 0 .6-.9.8-2 .6-1.1-.2-2 0-2 .6 0 .5-.9.9-2.1.9-1.1 0-1.7.5-1.4 1 .3.6 1.8.7 3.3.3 2.5-.6 2.6-.5 1.2 1.2-1.2 1.5-1.2 1.7-.1 1 .9-.5 1.2-.4.8.2-.4.6-1.8.8-3.2.5-1.8-.3-2.5 0-2.5 1.2 0 .9.5 1.6 1.1 1.6.6 0 .9.9.6 2-.3 1.1-.1 2 .4 2s.9-.7.9-1.5c0-2.1 3.1-5.5 5.1-5.5.9 0 1.9.9 2.2 2.1.3 1.2 1 1.8 1.5 1.5.6-.3 1.3 0 1.5.6.4 1 .6 1 .6 0 .1-.6.9-1.2 1.9-1.2.9 0 1.3.4.7.8-1.8 1.3-1.7 3.5.1 2.8 1-.4 2.1-.1 2.6.6.6 1 1.1.9 1.9-.4 1.2-2.1 3.5-2.4 4.2-.6.3.8.6.5.6-.6.1-1.4.4-1.6 1.4-.7 1 .8 1.7.7 2.5-.1.9-.9 1.6-.7 3.2.7 2.3 2.1 2.7 4.7.6 3.9-1.1-.4-1.3 0-.9 1.5.3 1.3 1 1.8 2.1 1.4 1.2-.4 1.4-.3.7.4-1.4 1.5-10.5 2.7-10.5 1.4 0-.7-2.8-.8-3.7-.1-.2.2-.7.3-1.2.4-.5 0-1.2.4-1.5.7-.3.3-2.6.4-5.1.3-3.1-.2-4.5.1-4.5 1 0 1.8 3.6 4.9 4.8 4.2.5-.3 1.6.1 2.3 1 1 1.2 1 1.5-.1 1.2-.8-.2-1.6.5-1.8 1.5-.3 1.6-.1 1.7 1.7.7 1.2-.6 2.1-.7 2.1-.3 0 .4.4.3.8-.2 1.2-1.6 5-3.5 7.2-3.5 1.2 0 1.9-.4 1.5-.9-.3-.6.5-1.6 1.7-2.2 3.2-1.7 9.7-2.8 10.4-1.8.3.5-.1.9-.8.9-.7 0-.2 1 1.2 2.1 1.7 1.4 1.9 1.9.7 1.5-1-.3-1.9 0-2.1.7-.2.6-.8 2.8-1.4 4.7-1.1 3.4-1.1 3.4.6 1.4.9-1.1 2.6-2.6 3.7-3.3 1.5-1 1.6-1.1.3-.7-2.3.7-2.4-1-.1-1.8 1.1-.5 2.8.5 5.2 2.9l3.6 3.5v12.3c0 6.7-.4 14.7-.8 17.9-.7 4.9-1.2 5.8-3.7 6.8-5.4 2.2-4.6 6.6 1.8 9.9 8.9 4.6 26.3 8.2 57.7 12.3 14.8 1.9 23.2 2.2 65.8 2.5l48.7.5v-2.6c0-2.1-.6-2.6-3.2-3.1-8.8-1.5-90.4-7.2-91.5-6.3-1.6 1.3-19.1-.2-23.3-2-1.9-.8-6.2-1.7-9.5-1.9-11.1-.7-25.9-3.3-27.4-4.8-1.3-1.3-.9-1.7 3-3.4 4.1-1.8 23.7-6.1 28-6.1 1.6 0 1.9.7 1.9 4 0 3.7.2 4 3.8 4.9 4.8 1.4 5.2 1.4 5.2-.4 0-1.9.9-1.9 3 0 1.6 1.5 1.8 1.2 2.4-3.7 1.1-7.7.7-35.7-.5-40.2-.6-2.1-.9-4-.7-4.1.2-.2 5.2-1.4 11.2-2.6 9.1-1.8 11-1.9 11.7-.8.6.9.8.2.7-2.1-.3-3.2-.1-3.5 2.2-3.2 1.4.2 3.1.9 3.8 1.4.6.6 1.2.7 1.2.2 0-1.2-1.6-3.6-2.1-3.3-1.1.8-5.9-3.6-5.9-5.5 0-1.5-.3-1.7-.9-.7-.5.8-1.1.9-1.5.3-.3-.6-1.5-.8-2.6-.5-1.1.3-2 0-2-.6v-1.9c0-1.1 3.3-1 4.9.2 1.1.9 1.2.5.7-2-.6-2.5-.3-3.3 1-3.8 1-.4 2.1-.1 2.5.6.6 1 1.2.8 2.3-.7.9-1.1 1.6-1.4 1.6-.8 0 2.5 3 1.3 3-1.2 0-2.8-3.1-4.9-6-4-1.1.4-2 .2-2-.3 0-1.7 1.2-2 4.1-1.2 1.6.5 2.9.5 2.9 0 0-1.4 3.1-2 5-1 1.3.7 2.1.7 2.5 0 .4-.6 1-.8 1.5-.5.4.3 1.1-.2 1.4-1.1.9-2.4.8-2.7-1.8-2.2-1.9.4-2.2.1-1.8-1.5.4-1.6.1-1.9-1.1-1.4-.9.3-1.9.2-2.2-.3-.4-.6-1.4-.6-2.7.1-2.6 1.4-4.9-.4-3-2.3 2.4-2.4 1.1-3.1-1.4-.7-2.6 2.4-2.6 2.4-1.3.1 1.2-1.9 1.2-2.4 0-3.1-2.2-1.4.5-2.3 4.6-1.5 4.6.9 6.7 2.6 5 4.3-.8.8-.7 1.1.5 1.1.9 0 2.4.3 3.4.7 1.2.4 1.5.3 1-.5-1-1.6.6-1.5 2.4 0 .8.7.6.2-.5-1.2-6.7-8.4-7.8-11.4-3.2-9.3 2.4 1.1 5-.5 4.5-2.8-.2-.6.3-1.4 1-1.6.7-.3 1.2.4 1.2 1.9.1 2.1.2 2.2 1.4.5 2-2.6 5.6-2.2 5.7.5 0 1.3.3 1.7.6 1 .2-.6 1-1.2 1.6-1.2.7 0 1.3-1.1 1.3-2.5.1-1.5-.4-2.5-1.1-2.5-.8 0-1.6-.3-1.8-.8-.3-.4 1.2-.7 3.4-.7 3.2 0 3.8.3 3.3 1.7-.3 1.2 0 1.8.9 1.8s1.7-.6 2-1.3c.3-.9 1-.9 3.2.3 1.5.8 3.6 1.4 4.7 1.2 1.2-.2 1.8.3 1.8 1.6 0 1.1.8 2.6 1.7 3.3 1 .8 1.4.9 1 .2-.4-.6-.3-1.4.3-1.8.5-.3 1 .3 1 1.4 0 1.2.4 2.1 1 2.1s.6-.9.1-2.3c-.5-1.2-1.4-2.1-2-2-1.6.4-1.3-1.3.5-3.1.8-.9 1.3-2 1-2.5-.3-.5.3-.7 1.4-.4 1.1.3 2 1 2 1.7 0 .6.7.2 1.5-.8 1.7-2.2 2-4 .6-3.1-.5.3-1.2.1-1.6-.5-.3-.5.1-1 .9-1 .9 0 1.6-.5 1.6-1 0-.6-.4-1-.9-1s-1.1-1.3-1.4-2.8c-.4-2.2-1.1-2.8-2.8-2.8-1.6.1-2.3-.5-2.4-2.2-.1-1.9.2-2.2 1.9-1.8 2.3.6 5.4-2.8 3.7-3.9-1.5-.8-.1-4.4 1.5-3.8.8.3 1.4-.1 1.4-1 0-1.6-2.6-3-4.1-2.2-.4.3-1.4-.3-2-1.3-.8-1.2-2-1.7-3.5-1.4-1.7.3-2.4 0-2.4-1.2 0-.9-.7-1.6-1.5-1.6-.9 0-1.8-.7-2.2-1.6-.3-.8-1.2-1.3-2-1-.8.3-1.1.1-.8-.4.3-.6.1-1-.4-1-.6 0-1.1.7-1.1 1.5s-.4 1.5-1 1.5c-.5 0-1-.5-1-1.2 0-.6-.7-2-1.7-3-.9-1-1.2-1.8-.7-1.8 2 0 1.1-3.6-1.2-5.3-1.3-1-2.4-1.4-2.4-.8 0 .5.5 1.1 1.2 1.3.7.3.6.7-.5 1.1-1.1.4-1.7.1-1.7-.8s-.6-1.2-1.5-.8c-1 .3-1.5.1-1.3-.7.2-.7-.7-1.3-1.9-1.5-1.4-.1-2.3.4-2.3 1.3 0 1.2-.3 1.2-2.2 0-3.3-2.1-6.6-2.8-7.2-1.4-.2.6-.5.1-.5-1.2-.1-1.3-.5-2-1.1-1.7-.5.3-.7 0-.5-.7.3-.7 1.6-1.8 2.9-2.4 2-.9 2.8-.8 4.6 1 1.5 1.5 2.1 1.7 1.8.6-.3-1.5.2-2 2.3-2 .5 0 .7.6.4 1.2-.4.7 0 .5.8-.5.8-.9 2.4-1.7 3.6-1.7 1.2 0 2.1-.6 2.1-1.5 0-.8-.8-1.5-1.7-1.5-1.6-.1-1.6-.2.1-1.1 1.4-.9 2.1-.8 2.7.2.8 1.2 1 1.2 1.8 0 .6-.9 1.1-1 1.5-.2 1.4 2.1 2.8 1.1 2.2-1.5-.5-2-.3-2.4 1.1-2.2 1 .2 1.7-.2 1.6-1-.4-1.8 2.5-1.4 3.6.5.8 1.5 1.2 1.6 2.2.5 1.1-1 1-1.5-.3-2.8-1.3-1.3-1.4-2.3-.7-4.2.8-2 .6-2.9-1.1-4.7-1.5-1.6-1.8-2.5-1-3 .6-.4.9-1.3.6-2-.2-.7.6-1.8 2-2.5 2.6-1.4 3.3-3.3.9-2.4-.8.3-2.2-.1-3-1-1.6-1.6-1.6-1.7.8-2 1.7-.1 2.2-4.6.5-4.6-.7 0-2.3-.3-3.5-.6-1.7-.5-2.3-.2-2.3 1 0 .9-.4 1.6-1 1.6-.5 0-.7-.6-.4-1.4.4-1-.3-1.3-2.4-1-2.5.3-3.1-.1-3.6-2.2-.6-2.1-.9-2.4-2.1-1.4-1.9 1.6-2-.7-.3-4.5.9-1.9.9-2.8 0-3.7-.7-.7-1.2-.8-1.2-.2 0 .6-2.2 1-5.2 1-2.9-.1-5.8.2-6.5.7-.7.5-2 .4-3.2-.2-2.8-1.5-4-1.3-1.8.3 1.6 1.3 1.5 1.4-1 1.2-1.5-.1-3.4-.5-4.1-.9-.7-.5-1.4-.2-1.7.7-.3.9-.7 2.3-1 3.2-.4 1.3-1.4 1.5-4.7 1.1-2.2-.3-4.5-1.1-5-1.9-.8-1-1.1-1-1.5-.1-.8 2.1-2.2 1.5-1.6-.7.3-1.1.9-1.8 1.3-1.5.9.6 2.3-1.2 2.6-3.1.1-.7-1.2-1.5-3-1.9-2.9-.6-3-.7-.9-1.5 3-1.2 2-3.7-1.8-4.2-2-.3-3.3 0-3.9 1.1-.5.9-1 1.1-1 .4 0-.6-.8-1-1.8-.8-1.1.2-2.5-.5-3.2-1.5-1-1.3-1.8-1.6-2.6-1-.8.7-1.1.4-.9-1.2.4-3.8.5-3.9 1.8-3.2.6.4.4-.2-.7-1.4-1.6-1.8-2-1.9-3.3-.7-1.9 1.9-4.9 1.9-5.7 0-.7-1.9-2-1.9-3.6 0zm-.5 19.5c.3.5.1 1-.4 1-.6 0-1.1-.5-1.1-1 0-.6.2-1 .4-1 .3 0 .8.4 1.1 1zM117 31c-2 1.3-3.3 1.3-2.5 0 .3-.6 1.4-1 2.3-1 1.5 0 1.5.2.2 1zm28.4-.4c.9.3 1.6 1.1 1.6 1.6 0 .6-.6.6-1.4-.1-1.2-1-1.7-.8-2.6.9-1.4 2.6-2.4 2-1.5-.9.7-2.2 1.4-2.5 3.9-1.5zm51.9 3.9c-.7 2.1-1.2 1.9-1-.4 0-1.1.5-1.8.9-1.5.4.3.5 1.1.1 1.9zm2.7.5c0 .5-.5 1-1.1 1-.5 0-.7-.5-.4-1 .3-.6.8-1 1.1-1 .2 0 .4.4.4 1zM95.7 38.8c-1.3 1.4-1.4 2.1-.5 3 .8.8.5.9-1.1.5-3-.8-3.5-2-1.1-2.8 1.1-.3 2-1.1 2-1.6s.5-.9 1.2-.9c.6 0 .5.7-.5 1.8zm44.3 0c2.5 2 2.2 3.7-1 4.5-1.5.4-2 0-2-1.3 0-1.1-.5-2.2-1-2.5-1.1-.7-.4-2.5.9-2.5.5 0 1.9.8 3.1 1.8zm58.7.4c-.3.8-.6.5-.6-.6-.1-1.1.2-1.7.5-1.3.3.3.4 1.2.1 1.9zm-43.4 2.5c-.7.2-1.9.2-2.5 0-.7-.3-.2-.5 1.2-.5s1.9.2 1.3.5zm54.7 1.1c0 .5-1.3.7-3 .4-1.6-.2-3-.6-3-.8 0-.2 1.4-.4 3-.4 1.7 0 3 .4 3 .8zm-74 1.8c0 .8-.5 1.2-1 .9-.6-.4-.8-1.1-.5-1.6.9-1.4 1.5-1.1 1.5.7zm57 .4c0 .5-.2 1-.4 1-.3 0-.8-.5-1.1-1-.3-.6-.1-1 .4-1 .6 0 1.1.4 1.1 1zm-53.4 2c0 2-.7 2.5-1.9 1.3-.4-.3-.2-1.2.4-2 1.5-1.7 1.5-1.7 1.5.7zm62.8 1.1c-.8 1.4-2.1 1.1-2.1-.5 0-.8.6-1.2 1.4-.9.7.3 1 .9.7 1.4zM134 49.5c0 .8-.4 1.5-1 1.5-.5 0-.7-.7-.4-1.5.4-.8.8-1.5 1-1.5.2 0 .4.7.4 1.5zm62 0c1.5 1.8.6 1.9-2.2.4-1.3-.7-2.3-.8-2.7-.1-.4.6-1 .5-1.7-.3-.9-.9-.4-1.2 2.1-1.3 1.8-.1 3.9.5 4.5 1.3zm3.2 2.7c-.7.7-1.2.8-1.2.2 0-.6.3-1.4.7-1.7.3-.4.9-.5 1.2-.2.2.3-.1 1.1-.7 1.7zm-3.8 2.7c.4.5-.1.8-.9.7-2.1-.3-3.1-1.6-1.2-1.6.9 0 1.8.4 2.1.9zM81 55.4c0 .3-.4.8-1 1.1-.5.3-1 .1-1-.4 0-.6.5-1.1 1-1.1.6 0 1 .2 1 .4zm40.5.7c-.4.6-1 .8-1.3.5-.3-.3-1.3.1-2.3 1-1.3 1.2-1.9 1.2-2.5.3-.4-.8-.3-1 .5-.5.6.4 1.4 0 1.7-.8.3-.9 1.5-1.6 2.6-1.6s1.6.5 1.3 1.1zm7.5-.1c0 .5-.2 1-.4 1-.3 0-.8-.5-1.1-1-.3-.6-.1-1 .4-1 .6 0 1.1.4 1.1 1zm89 .9c0 .5-.9.7-2 .4-1.1-.3-2-.7-2-.9 0-.2.9-.4 2-.4s2 .4 2 .9zM89 59c0 .5-.5 1-1.1 1-.5 0-.7-.5-.4-1 .3-.6.8-1 1.1-1 .2 0 .4.4.4 1zm37 1.1c0 1.2-.8 2.3-1.9 2.6-1.2.3-1.7 1.1-1.4 2 .5 1.3.3 1.3-1.5.2-1.7-1-1.8-1.6-.8-3.3 2.2-4 5.6-4.9 5.6-1.5zm59.3.7c-.3 1.2-1.2 2.2-1.9 2.2-.8 0-1.4.5-1.4 1.1 0 .5-.4.8-1 .4-1.3-.8-.1-3.5 1.5-2.9.7.3 1.5-.5 1.8-1.7.4-1.3.8-2.1 1.1-1.8.3.3.3 1.5-.1 2.7zm4.2.2c-.3.5-1.3 1-2.1 1s-1.4-.5-1.4-1c0-.6.9-1 2.1-1 1.1 0 1.7.4 1.4 1zm-88.2 3.4c-.4.6-.8.5-1.1-.2-.2-.7-1.6-1.2-3-1.3-2.4 0-2.5-.1-.7-.8 2.3-.9 5.7.8 4.8 2.3zm67.4-1.9c0 .8-.6 1.5-1.3 1.5-.8 0-1.1-.6-.8-1.5.4-.8.9-1.5 1.3-1.5s.8.7.8 1.5zm3.6 0c-.3.9-.8 1.4-1 1.1-.3-.3-.2-.9.2-1.5.9-1.6 1.5-1.3.8.4zm32.7-.1c0 .2-.9.6-2 .9-1.1.3-2 .1-2-.4s.9-.9 2-.9 2 .2 2 .4zM117.1 64c2 1.1 2.4 3.6 1 5.9-.8 1.2-1.2 1.2-2.5.2-.9-.7-1.3-1.7-1-2.2.3-.5-.2-.9-1-.9-1.9 0-2.1-1.1-.4-2.8 1.5-1.5 1.5-1.5 3.9-.2zm69.2 2c-.3 1.1-1.2 2-1.9 2-1.7 0-1.8-1.2-.2-2.8 1.8-1.8 2.7-1.5 2.1.8zm-7.6 3.2c-.3.8-.6.5-.6-.6-.1-1.1.2-1.7.5-1.3.3.3.4 1.2.1 1.9zm-67.7 2c-2.3.8-5 .1-5-1.4 0-.5.4-.7.9-.3.5.3 1.2.1 1.6-.5.4-.6 1.3-.5 2.5.3 1.9 1.1 1.9 1.2 0 1.9zm16.2-.2c1.2 2.1 1.4 3 .5 2.9-2.6-.3-3.7.2-3.7 1.6 0 2.2-1.7 1.8-2.3-.6-.4-1.4-1-1.8-1.9-1.3-1 .6-1 .4.1-.9.7-.9 1-1.7.6-1.7s-.2-.7.5-1.5c2-2.4 4.3-1.8 6.2 1.5zm8.3-.8c-.4 1.3-1.3 3-2.1 3.8-1.2 1.2-1.4 1.1-1.4-.8 0-1.2.5-2.2 1-2.2.6 0 1-.7 1-1.5s.5-1.5 1.1-1.5c.6 0 .8.9.4 2.2zm-63-.2c-.3.5-.1 1 .6 1s1 .3.6.6c-.9.9-2.8-.6-2.2-1.7.4-.5.8-.9 1.1-.9.3 0 .2.4-.1 1zm4.5 1c0 .5-.2 1-.4 1-.3 0-.8-.5-1.1-1-.3-.6-.1-1 .4-1 .6 0 1.1.4 1.1 1zm8.9 3.8c-1.1.2-1.9 1-1.9 1.8s-1.3 1.7-3 2.1c-1.7.3-3.7 1.5-4.5 2.6-.8 1.2-1.7 1.8-2.1 1.5-.3-.4.4-1.6 1.6-2.8 1.1-1.1 1.8-2.6 1.4-3.2-.4-.6-.3-.8.3-.5.5.3 1.7-.5 2.7-1.8 1-1.3 2.4-2.1 3.1-1.9.7.3 1.6 0 2.1-.7.5-.9.9-.7 1.4.7.5 1.4.2 2-1.1 2.2zm77.5-1.7c-.3.5-1 .7-1.5.3-.5-.3-.7-1-.3-1.5.3-.5 1-.7 1.5-.3.5.3.7 1 .3 1.5zm3-.6c-.4.8-.8 1.5-1 1.5-.2 0-.4-.7-.4-1.5s.4-1.5 1-1.5c.5 0 .7.7.4 1.5zM113 73.6c1.7 1.8-7.7 3.2-11.4 1.8-1.3-.5-1.4-.9-.4-2.1.9-1.2 2.4-1.3 6.2-.8 2.8.3 5.3.9 5.6 1.1zm24 1c0 .8-.5 1.2-1 .9-.6-.4-.8-1.1-.5-1.6.9-1.4 1.5-1.1 1.5.7zm32 .5c0 .5-.8.9-1.7.8-1.1 0-1.3-.3-.5-.6.6-.2.9-1 .6-1.5-.4-.7-.2-.8.4-.4.7.4 1.2 1.1 1.2 1.7zm8-1.1c0 .5-.5 1-1.1 1-.5 0-.7-.5-.4-1 .3-.6.8-1 1.1-1 .2 0 .4.4.4 1zm-72 3.4c0 .2-.7.6-1.5 1-.8.3-1.5.1-1.5-.4 0-.6.7-1 1.5-1s1.5.2 1.5.4zm23 1.1c0 .8-.4 1.5-.9 1.5s-1.1-.7-1.5-1.5c-.3-.9 0-1.5.9-1.5.8 0 1.5.7 1.5 1.5zm7.5-.5c-.3.5-1.2.7-2 .3-2.1-.7-1.9-1.3.6-1.3 1.1 0 1.8.4 1.4 1zm-21.2 1.5c.7 1.6-.8 2.9-2.3 2-1.5-.9-1.2-3.5.4-3.5.8 0 1.6.7 1.9 1.5zM74 80c0 .5-.5 1-1.1 1-.5 0-.7-.5-.4-1 .3-.6.8-1 1.1-1 .2 0 .4.4.4 1zm67.2 2.2c-.7.7-1 .5-.7-.8.5-2.9.6-3 1.2-1.6.3.8.1 1.8-.5 2.4zm43.9 2.3c1.6-.2 3.1.1 3.4.6.9 1.3 5.3 1.1 5.7-.3.3-.8.6-.9 1.1-.1.4.6-.2 2.2-1.3 3.4l-2 2.4-1.9-2.3c-1.8-2.1-4.3-2.5-6.8-.9-1.1.7-3.4-4.1-3.2-6.7 0-.6.5.1 1 1.6.9 2.2 1.5 2.6 4 2.3zm-21.1-2c0 .8.5 1.5 1 1.5 1.8 0 1 1.9-1.2 3s-2.2 1-.4-.4c1.9-1.6 1.9-1.6-.2-1.6-1.2 0-2.2.6-2.3 1.2 0 1-.2 1-.6 0-.2-.6-.9-1-1.4-.6-.5.3-.9 0-.9-.5 0-.6.5-1.1 1.1-1.1.6 0 .9-.7.5-1.5-.4-1.1.1-1.5 1.9-1.5 1.6 0 2.5.6 2.5 1.5zm-42.6.8c.7.7 1.6 2.9 2 5 .6 3 .4 3.7-.9 3.7-1.7 0-5.5-3.5-5.5-5.1 0-1.3 1.9-4.9 2.6-4.9.3 0 1.1.6 1.8 1.3zm14.7 3c-1 .9-1.1.8-.5-.6.3-1 .9-1.5 1.2-1.2.3.3 0 1.1-.7 1.8zm17.3-.8c.3.8 0 1.4-.7 1.2-.7-.1-1.1.3-1 .9.1.6-.9 1.1-2.2 1.1-1.5 0-2.5-.5-2.5-1.3 0-1.4 1.2-1.8 3.8-1.5.6.1 1.2-.3 1.2-.9 0-1.5.7-1.2 1.4.5zm-26.4 1c0 .8-.2 1.5-.4 1.5s-.6-.7-1-1.5c-.3-.8-.1-1.5.4-1.5.6 0 1 .7 1 1.5zm7-.1c0 .8-.7 1.6-1.5 2-1.7.6-1.8.4-.9-1.8.8-2 2.4-2.1 2.4-.2zm36 .4c0 1-.7 1.9-1.5 1.9s-1.5-.9-1.5-1.9c0-1 .7-1.8 1.5-1.8s1.5.8 1.5 1.8zm-12.4 1.7c-.2.7.2 1.6.9 1.9.8.3 1.2 1.2.9 1.9-.3.8.2 1.7 1.1 2.1 2.6 1 .7 2.7-2.3 2-2.5-.5-2.5-.4-.9.9 2.4 2 2.2 2.4-1.5 3.2-1.8.4-3.6.9-4 1.2-1 .5 1.4 4.3 2.7 4.3.6 0 1.1 1 1.2 2.2.2 2.2.1 2.2-1.2.5-.9-1.2-1.5-1.5-2-.7-.4.6-1.3.9-2 .6-.7-.2-1.8.1-2.5.7-1 .9-1.1.9-.6-.1.5-.8 0-1.2-1.6-1.3-1.3 0-1.7-.3-1-.6.6-.2.9-1 .6-1.5-.4-.7-.2-.8.5-.4s1.9.5 2.8.2c1.4-.6 1.4-.8 0-2.4-1.7-1.9-.6-4.3 2.6-5.5.9-.3 1.7-1.3 1.7-2.2 0-.8.7-1.5 1.5-1.5 1.8 0 2-2 .3-2.1-1 0-1-.2 0-.6.6-.2 1.2-1.6 1.2-2.9 0-1.5.4-2.3 1.1-1.9.6.4.8 1.3.5 2zm20.4-.6c0 .4-1.2.7-2.7.6-4.5-.3-5-.7-1.8-1.4 3.1-.8 4.5-.5 4.5.8zm-62.5 3.8c-.1 1 .2 2.4.8 3 .7 1 .4 1.3-1.1 1.3s-2-.5-1.6-1.5c.4-.8.1-1.5-.5-1.5s-1.1-.7-1.1-1.5.9-1.5 1.9-1.5c1.3 0 1.8.6 1.6 1.7zm85.5 2c0 2-.3 2.4-1.1 1.6-.7-.7-.9-1.9-.6-2.7 1-2.4 1.7-1.9 1.7 1.1zM59.5 93c-.3.5-1.1 1-1.6 1-.6 0-.7-.5-.4-1 .3-.6 1.1-1 1.6-1 .6 0 .7.4.4 1zm73.2 1.6c-.3.3-1.2.4-1.9.1-.8-.3-.5-.6.6-.6 1.1-.1 1.7.2 1.3.5zm5.6.9c-.3.9-.8 1.4-1 1.1-.3-.3-.2-.9.2-1.5.9-1.6 1.5-1.3.8.4zm-3.7 2c-.3 2.1-1.3 2.8-2.7 1.9-.9-.5-.7-1.1.6-2.1 2.3-1.6 2.4-1.6 2.1.2zm73.8 2.1c.6 1.5.4 1.5-1.1.3-1-.7-2-1.5-2.2-1.6-.2-.2.3-.3 1.1-.3.9 0 1.9.7 2.2 1.6zm-71.4 1.9c0 .8-.7 1.5-1.5 1.5-1.3 0-1.4-.3-.3-1.5 1.6-1.8 1.8-1.8 1.8 0zm6-1.1c0 .3-.4.8-1 1.1-.5.3-1 .1-1-.4 0-.6.5-1.1 1-1.1.6 0 1 .2 1 .4zm47.5 1.6c.3.5-.1 1-1 1s-1.3-.5-1-1c.3-.6.8-1 1-1 .2 0 .7.4 1 1zm-6.5 1.5c0 .8-.2 1.5-.4 1.5s-.6-.7-1-1.5c-.3-.8-.1-1.5.4-1.5.6 0 1 .7 1 1.5zm31.7 2.1c.3.8.9 1.1 1.4.8.5-.3.9-.1.9.4 0 1.8-2.9 2.1-4.6.5-1.3-1.4-1.9-1.4-3.6-.4-2.9 1.8-4.5-.1-2.3-2.7 1.5-1.7 2.2-1.8 4.7-1 1.6.6 3.2 1.7 3.5 2.4zm8.7 1.6c-.6 2-.5 2.1 1 .9 1.3-1.1 1.6-1.1 1.6.1 0 .7-1.3 1.9-2.9 2.5l-3 1.1 1.7-3.4c1.8-3.9 2.7-4.5 1.6-1.2zM140 107c0 .5-1 1-2.2.9-2.2 0-2.2-.1-.3-.9 1.1-.5 2.1-.9 2.3-.9.1-.1.2.3.2.9zm42 2.4c0 2.2-1.3 2.6-3.3 1.1-1.4-1-1.5-1.4-.5-1.8 2.4-1 3.8-.7 3.8.7zm4.5-.4c.3.5 1.7 1 3 1s2.7.4 3 1c.3.5.1 1-.4 1-.6 0-1.1.4-1.1 1 0 .5.5.9 1.1.7.6-.1 1.4.4 1.7 1.2.3 1 0 1.2-1.2.8-2.1-.8-4.6.2-4.6 1.8 0 .7-1.1 1.2-2.5 1.2h-2.4l2.2-1.8c1.4-1.1 1.7-1.8.8-1.9-.9 0-1.1-.8-.7-2.5.4-1.4.2-2.5-.4-2.5-.5 0-1-.5-1-1 0-.6.4-1 .9-1 .6 0 1.3.4 1.6 1zm-49.1.9c.4.5 0 1.2-.6 1.4-1 .4-.9.8.2 1.6 1.9 1.4.5 1.4-2.3 0-1.6-.7-1.4-.4.7 1.4 1.9 1.6 2.4 2.7 1.7 3.2-.7.3-.9 1.6-.5 2.7.5 1.6.2 1.9-1.8 1.6-1.9-.3-2.3-.9-2.3-4.1.1-2-.2-3.7-.7-3.7-.4 0-.5-.7-.2-1.5.4-.8 1.2-1.5 2-1.5s1.4-.5 1.4-1c0-1.3 1.7-1.3 2.4-.1zm-12 1.2c-.5.9-6.4 1.7-6.4.9 0-.4.2-.9.5-1.2.8-.7 6.4-.4 5.9.3zm45.6-.1c0 .5-.2 1-.4 1-.3 0-.8-.5-1.1-1-.3-.6-.1-1 .4-1 .6 0 1.1.4 1.1 1zm29 .6c0 .2-.7.4-1.5.4s-1.5-.4-1.5-1c0-.5.7-.7 1.5-.4.8.4 1.5.8 1.5 1zm-47.7 1.8c-.4 2.1-.2 2.4 1.6 1.9 1.2-.3 2.1-.1 2.1.5 0 .5-.9 1.2-2 1.5-1.8.5-1.8.7-.5 3.3 1.1 2.3 1.2 3.9.4 7.6-.6 2.7-1.5 4.9-2 4.9-.5.1-1.3.2-1.8.3-.5 0-1.3.4-1.7.8-1.2 1.2-4.4.9-5.7-.5-.7-.6-1.1-2.7-1-4.4.1-1.8-.3-3.5-.8-3.9-.5-.3-.9-1.4-.9-2.5 0-1-.5-1.9-1.1-1.9-.5 0-.7-.5-.4-1 .4-.6 1.1-.8 1.6-.5.5.4.9-.1.9-1s-.4-1.3-1-1c-.5.3-1 .3-1 0s1.3-1.1 3-1.6c1.6-.6 2.7-1.5 2.4-2-.3-.5-.2-.9.3-.8 2.6.5 6.3-.2 5.8-1.1-.3-.6 0-1 .8-1 1 0 1.3.8 1 2.4zm16.4 2.5c-.6 1.7-1.6 2.7-2.4 2.4-.7-.3-1.3-.1-1.3.5 0 1.2-2.6 1-3.7-.3-.4-.4-.3-.5.3-.2.6.4 1.6-.5 2.2-1.8 1.2-2.6 3.2-3.4 3.2-1.3 0 .7.5.5 1.1-.5 1.5-2.6 1.9-2 .6 1.2zm5.8-1.9c-.3.5-1.4 1-2.3.9-1.4 0-1.3-.2.3-.9 2.7-1.1 2.7-1.1 2 0zm26.5.5c0 1.1-2.9 1.1-3.3.1-.4-1 .1-1.2 1.4-.9 1 .3 1.9.7 1.9.8zm-120.5.5c-.3.5-1.4 1-2.3.9-1.4 0-1.3-.2.3-.9 2.7-1.1 2.7-1.1 2 0zm-11 2.2c.6.4-.3.8-1.8.8-2.3 0-2.6-.2-1.5-1.4.7-.8 1.5-1.1 1.8-.8.3.4 1 1 1.5 1.4zm102.5.9c0 .5-.7.9-1.5.9-.9 0-1.2-.6-.9-1.5.6-1.5 2.4-1.1 2.4.6zm-92-.1c0 .5-.2 1-.4 1-.3 0-.8-.5-1.1-1-.3-.6-.1-1 .4-1 .6 0 1.1.4 1.1 1zm113.3 0c-1.3.5-2.3 1.2-2.3 1.5 0 .4.4.4.9.1.5-.3 1.4 0 2 .8.8 1 .6 1.7-.8 3-1.7 1.5-1.9 1.5-2.5.1-.3-.9-1-1.4-1.5-1.1-.5.4-1.1 0-1.4-.6-.7-2 2.4-4.8 5.2-4.7 2.6 0 2.6 0 .4.9zm28.7.5c-.7.8-2 1.5-2.9 1.5-1.1-.1-.8-.5.9-1.5 3.2-1.8 3.5-1.8 2 0zm-154.3 1.8c.4.6 0 .8-.9.4-.9-.3-2-.1-2.6.5-1.6 1.6-3.5 0-2-1.6 1.3-1.4 4.4-1 5.5.7zm14.8-1.3c.3.5.1 1-.4 1-.6 0-1.1-.5-1.1-1 0-.6.2-1 .4-1 .3 0 .8.4 1.1 1zm115.3.2c-.2.6.8 1.7 2.2 2.5l2.5 1.3h-3.2c-2.9 0-3.3-.3-3.3-2.5 0-1.4.5-2.5 1-2.5.6 0 .9.5.8 1.2zm-125.3.8c.3.5.1 1-.4 1-.6 0-1.1-.5-1.1-1 0-.6.2-1 .4-1 .3 0 .8.4 1.1 1zm129.5 0c0 .5-.4 1-1 1-.5 0-1-.5-1-1 0-.6.5-1 1-1 .6 0 1 .4 1 1zm-37.5 2.8c-.3.3-1.1 0-1.8-.7-.9-1-.8-1.1.6-.5 1 .3 1.5.9 1.2 1.2zm43.2-1.2c-.3.3-1.2.4-1.9.1-.8-.3-.5-.6.6-.6 1.1-.1 1.7.2 1.3.5zm-129.4 1.1c1.2 2.2 1.6 6.3.6 6.3-2 0-4.1-2.9-3.4-5 .6-2 2-2.6 2.8-1.3zm82.4 1.5c-.3.8-.6.5-.6-.6-.1-1.1.2-1.7.5-1.3.3.3.4 1.2.1 1.9zm20.3.9c0 1.1-.4 1.8-1 1.4-.5-.3-.7-1.2-.3-2 .7-2.1 1.3-1.9 1.3.6zm-94-.1c0 .5-.4 1-1 1-.5 0-1-.5-1-1 0-.6.5-1 1-1 .6 0 1 .4 1 1zm138.7-.4c-.3.3-1.2.4-1.9.1-.8-.3-.5-.6.6-.6 1.1-.1 1.7.2 1.3.5zm-52.2 4.2c-.5.4-1 1.3-1 2.1 0 1.6-4.3 2.3-5.1.9-.3-.4-.9-.6-1.3-.4-.3.3-.7-.3-.7-1.3 0-1.3.7-1.7 2.4-1.5 1.7.2 2.6-.3 3-1.8.4-1.8.6-1.8 2.1-.3 1 1 1.2 1.8.6 2.3zm39.5-2.6c0 .4-.4.8-.9.8-.6 0-1.2-.4-1.5-.8-.3-.5.1-.9.9-.9s1.5.4 1.5.9zm-37.3 3c-.3.7-.5.2-.5-1.2s.2-1.9.5-1.3c.2.7.2 1.9 0 2.5zM61 128c0 .5-.5 1-1.1 1-.5 0-.7-.5-.4-1 .3-.6.8-1 1.1-1 .2 0 .4.4.4 1zm12.6 1.2c-.1 1-.4 1.8-.8 1.8h-1.7c-.6 0-.9-.9-.8-1.9.2-2.5 3.4-2.4 3.3.1zm106.4-.1c0 .4-.7.6-1.5.3-.8-.4-1.5-1-1.5-1.5 0-.4.7-.6 1.5-.3.8.4 1.5 1 1.5 1.5zm15.8.9c.3.9-.1 1.1-1.2.7-.9-.4-1.6-.2-1.6.3 0 .6-.6 1-1.3 1-.8 0-2.6 1.1-4.2 2.4-3 2.6-5.7 2.8-6.1.4-.1-1.1.4-1.4 2-1 1.9.5 2 .4.7-1.2-.8-.9-1.1-2-.7-2.3.4-.4 1.1-.1 1.6.7.9 1.3 1 1.3 1 0 0-1.2.2-1.3.9-.1.7 1.1 1 1.1 1.7-.2 1.6-2.6 6.4-3.1 7.2-.7zm-90.8 1.1c0 .5-.9.9-2 .9-1.7 0-1.9-.2-.8-1.4 1.3-1.4 2.8-1.2 2.8.5zm-41 .6c0 1.6-1.6 1.7-2.6.2-.5-.8-.8-.8-1.3 0s-1.3.6-2.7-.4c-1.8-1.4-1.6-1.5 2.4-1.3 2.7.1 4.2.7 4.2 1.5zm39 2.3c0 .5-.2 1-.4 1-.3 0-.8-.5-1.1-1-.3-.6-.1-1 .4-1 .6 0 1.1.4 1.1 1zm39.8 4c.2 1-.6 1.5-2.3 1.5-2.4 0-3.3-1.4-1.8-2.9 1.1-1.1 3.8-.2 4.1 1.4zm41.2 0c0 .5-.5 1-1.1 1-.5 0-.7-.5-.4-1 .3-.6.8-1 1.1-1 .2 0 .4.4.4 1zm-115.4 5.7c-1 1-1.9-.5-1-1.8.6-1.1.8-1.1 1.2 0 .2.7.1 1.5-.2 1.8zm10.4.4c0 .5-.4.9-1 .9-.5 0-1-.7-1-1.6 0-.8.5-1.2 1-.9.6.3 1 1 1 1.6zm48.7.5c-.3.3-1.2.4-1.9.1-.8-.3-.5-.6.6-.6 1.1-.1 1.7.2 1.3.5zm44.7 1.8c-.3.9-1 1.6-1.5 1.6s-.9.7-.9 1.5c0 1.3-.3 1.4-1.5.3-1.2-1.1-1.1-1.6 1.1-3.6 2.8-2.5 3.8-2.4 2.8.2zm-40.9 2.6c.3.5.1 1-.4 1-.6 0-1.1-.5-1.1-1 0-.6.2-1 .4-1 .3 0 .8.4 1.1 1zm28.9 1.3c-.3.8-1.2 1.8-2 2.1-2 .8-1.8-2.1.3-3.3 2.1-1.2 2.5-.9 1.7 1.2zm-59.4 1.2c0 .8-.8 1.5-1.7 1.4-1.1 0-1.3-.3-.5-.6.6-.2 1-.9.6-1.4-.3-.5 0-.9.5-.9.6 0 1.1.7 1.1 1.5zm-8.8 3c-.5 2.7-2.3 2.9-3 .4-.3-1.1-.2-1.1.6-.1.7 1.1 1 .9 1.5-.7.7-3 1.5-2.6.9.4zm35.1 2.2c-1.7.7-3.4 1.7-3.8 2.3-.3.5-1.4 1-2.3 1-1.2 0-1.3-.3-.5-1.1.6-.6.9-1.8.6-2.6-.5-1.3-.2-1.3 1.5-.4 1.3.7 2.2.8 2.2.2 0-1.1 3.1-2 4.5-1.2.5.3-.5 1.1-2.2 1.8zm29.8-.4c-1 .9-1.1.8-.5-.6.3-1 .9-1.5 1.2-1.2.3.3 0 1.1-.7 1.8zm-91 0c-.6.8-.7 1.8-.3 2.2.4.5.2.5-.5.1-1.4-.8-.6-3.6.9-3.6.7 0 .6.5-.1 1.3zm12.4.1c.7-.3 1.5.5 1.8 1.7.7 2.7-.1 3.9-1.3 2-.4-.8-1.5-1.1-2.4-.8-1.9.7-3-.8-2.2-3 .5-1.2 1-1.3 1.8-.5.6.6 1.6.8 2.3.6zm-25.2 4.1c-.3.9-.8 1.4-1 1.1-.3-.3-.2-.9.2-1.5.9-1.6 1.5-1.3.8.4zm80.2.5c.3.5.7 3.8.9 7.4.4 5.9.3 6.6-1.4 6.6-1.9 0-6.7-5.7-5.6-6.7.3-.3-.2-1.9-1-3.5-.9-1.7-1.4-3.1-1.2-3.1.2-.1 1.2-.7 2.3-1.3 2-1.1 5.1-.8 6 .6zm30.5-1c0 .5-.5 1-1.1 1-.5 0-.7-.5-.4-1 .3-.6.8-1 1.1-1 .2 0 .4.4.4 1zm-71 2c0 1.1-.7 2-1.5 2s-1.5-.9-1.5-2 .7-2 1.5-2 1.5.9 1.5 2zm-8 .5c0 .9-.6 1.2-1.5.9-.8-.4-1.2-1-.9-1.5.8-1.4 2.4-1 2.4.6zm74 2.5c0 1.6-.5 3-1.2 3-.6 0-2 .8-3.1 1.7-1.9 1.8-7 2.6-6.5 1.1.3-.7 9.6-8.4 10.6-8.7.1-.1.2 1.2.2 2.9zm13.5-2c-2.7 1.2-4.3 1.2-2.5 0 .8-.5 2.2-.9 3-.9 1 0 .8.3-.5.9zm-118.8 1.6c-.3.3-1.2.4-1.9.1-.8-.3-.5-.6.6-.6 1.1-.1 1.7.2 1.3.5zm20.3.4c0 .5-.5 1-1.1 1-.5 0-.7-.5-.4-1 .3-.6.8-1 1.1-1 .2 0 .4.4.4 1zm94-.1c0 .5-.9.7-2 .4-1.1-.3-2-.7-2-.9 0-.2.9-.4 2-.4s2 .4 2 .9zm-83.6 1.7c.9.8 1.6 2.3 1.6 3.1 0 1.3-.5 1.2-2.5-.7-1.4-1.3-2.5-2.7-2.5-3.2 0-1.3 1.7-.9 3.4.8zM67 169.4c0 .3-.9.6-1.9.6-1.4 0-1.8-.5-1.4-2 .4-1.6.7-1.7 1.9-.5.8.7 1.4 1.6 1.4 1.9zm45.8-1.4c-1.4 2.2-2.4 1.9-1.5-.5.4-.8 1.1-1.5 1.7-1.5.6 0 .6.7-.2 2zM81 170c.9 1.6.7 2.4-.5 3.6-2 2-2 4.8 0 4 .9-.3 1.5 0 1.5.9 0 .8 1.1 1.7 2.5 2.1 1.8.4 2.5 1.3 2.5 3 0 3.5-2.3 2.9-5.6-1.4-1.6-2-3.6-4.6-4.6-5.6-2-2.2-1.6-5.3 1-7.4 2-1.5 1.9-1.6 3.2.8zm24-.5c-.7.8-1.8 1.5-2.4 1.5-.6 0-.2-.7.8-1.5 2.5-1.9 3.2-1.9 1.6 0zm-10 1.1c0 .8-.4 1.2-1 .9-.5-.3-1 .2-1.1 1.2 0 1.1-.3 1.3-.6.5-.6-1.7.3-4.2 1.7-4.2.5 0 1 .7 1 1.6zm24 5c0 .2-.9.4-2.1.4-1.1 0-1.8-.4-1.4-1 .5-.8 3.5-.3 3.5.6zm4.6-.4c.4.7.3.8-.4.4s-1.2-.2-1.2.4c0 .6 1.1 1.5 2.5 2 2.9 1.1 3.4 3.5.5 2.7-1.9-.5-4.3 1.3-3.8 2.9.1.5-.1 2.4-.5 4.1-.6 3.1-.8 3.2-3.2 2.1-1.4-.6-2.5-1.7-2.5-2.5 0-1.3-1.2-1.7-3.7-1.4-.7.1-1.3-.5-1.3-1.4 0-1.3.4-1.4 2.1-.5 1.8 1 2 .9 1.7-1.2-.2-1.8.1-2.3 1.7-2.1 1.1.1 2.3-.4 2.7-1 .6-.9.8-.9.8 0 0 .7.5 1.3 1 1.3.6 0 1-.9 1-2.1 0-1.2-.4-1.7-1.1-1.3-.8.4-.8 0 0-1.5 1.3-2.3 2.6-2.7 3.7-.9zm36.8 1.4c.3.8-.1 1.4-1 1.4-1 0-1.4.6-1.1 1.4.3.8.1 1.7-.6 2-.7.2-.5.5.4.5.9.1 2-.7 2.3-1.6.6-1.4.9-1.5 1.5-.4.7 1.1 1.2.9 2.1-.9.9-1.7 1.5-1.9 2.3-1.1.9.9.8 1.4-.3 2.1-1.3.8-1.2 1 .3 1 1 0 1.5.4 1.2 1-.3.5-1.5 1-2.6 1s-3.7.9-5.9 2c-4 2.1-9 2.7-9 1.1 0-.5-.3-2.3-.6-4-.6-2.8-.4-3.1 1.7-3.1 2.1-.1 2.2-.2.7-1.1-2.7-1.5-2.1-2.6 1.1-2.1 1.6.2 3.2-.1 3.5-.7.8-1.3 3.3-.4 4 1.5zm10.9.4c.8 1.1 1.7 1.7 2 1.3.4-.3.7.1.7 1 0 2.1-2.6 2.2-3.4.1-.3-.8-1-1.3-1.4-1-.5.3-1.6-.4-2.5-1.5-1.6-1.8-1.6-1.9.8-1.9 1.3 0 3 .9 3.8 2zm-68.9 5.5c-1 .8-2.8 1.4-3.9 1.4-1.8 0-1.7-.1.5-1.4 3.4-2 6-2 3.4 0zm27.5 3.3c-.9 2.6-.8 2.6.6.7 1.5-1.9 1.6-1.8 5.3 1.8l3.7 3.7.4 12.6c.2 6.9 0 14.9-.3 17.8l-.7 5.3-12.2.7c-6.7.4-15.3 1.1-19.1 1.7-3.8.5-7 .8-7.1.7-.2-.2-.5-7.8-.7-16.9l-.3-16.7 5.2-1.2c2.9-.6 6.6-1.2 8.1-1.2 2.3-.1 2.8-.5 2.5-1.9-.7-2.4 1.3-2.5 2.5-.2.8 1.4 1.3 1.1 3.3-2.1 1.3-2 3.4-3.9 4.7-4.2 1.2-.4 2.2-1 2.2-1.6 0-.5-.8-.7-1.9-.3-1.2.4-2.1 0-2.5-1.1-.4-1.1-.2-1.5.7-1.1.8.3 2 .1 2.8-.3 2.3-1.5 3.9.8 2.8 3.8zm37.6-.8c-.3.5-1.8 1-3.3.9-2.4 0-2.5-.1-.7-.9 2.8-1.2 4.7-1.2 4 0zm-63 3.8c-1.4 1-1.7 3.2-.5 3.2.6 0 1-.5 1-1.1 0-.5.4-.8.9-.4.6.3 1.4-.3 2-1.2.6-1 1.1-1.4 1.1-.8 0 .5.4.4.9-.4.7-1 1.3-1.1 3-.2 1.2.7 1.9 1.6 1.5 2.2-.4.6-1.1.6-2-.2-1.1-.9-1.8-.9-2.6-.1-.7.7-.8 1.2-.2 1.2 1.7.1-7.8 4-9.7 4-1.5 0-1.9-.7-1.9-3.1 0-2.1.4-2.8 1.3-2.3.7.5.6 0-.3-1.1-1.4-1.6-1.3-1.7.7-1.1 1.2.4 2.4.2 2.8-.4.5-.9 1-.9 1.9 0 .7.7.7 1.3.1 1.8zm6.2 4.8c-.3.3-1.2.4-1.9.1-.8-.3-.5-.6.6-.6 1.1-.1 1.7.2 1.3.5z"/><path d="M150.5 129.1c-1 1.5.3 2.5 1.6 1.2.7-.7.7-1.3.1-1.7-.6-.3-1.4-.1-1.7.5zM37 123c0 .5.7.7 1.5.4.8-.4 1.5-.8 1.5-1 0-.2-.7-.4-1.5-.4s-1.5.4-1.5 1zM39 151.2c0 1.1.5 1.5 1.5 1.2.8-.4 1.5-1 1.5-1.4 0-.5.8-1.1 1.8-1.3.9-.3.2-.5-1.5-.4-2.4.1-3.3.6-3.3 1.9zM49.6 175.5c.4.8.1 1.5-.5 1.5s-1.1.4-1.1 1c0 1.4 1.9 1.2 3.5-.3 1.1-1.1 1-1.5-.6-2.5-1.5-1-1.7-.9-1.3.3zM43 181.5c-1 1.2-1 1.5.4 1.5.9 0 1.6-.7 1.6-1.5s-.2-1.5-.4-1.5-.9.7-1.6 1.5zM83.6 194.7c-.6 1.4-.5 1.5.5.6.7-.7 1-1.5.7-1.8-.3-.3-.9.2-1.2 1.2zM138.2 241.2c.2.6 1.5 1.5 2.8 2 2.3.9 2.3.8.5-1.2-2-2.2-3.9-2.7-3.3-.8z"/></svg>